<svg width="1007" height="1023" viewBox="0 0 1007 1023" fill="none" xmlns="http://www.w3.org/2000/svg">
<g opacity="0.62">
<path d="M459.682 822.518C424.832 844.016 388.067 858.401 345.768 859.437C298.62 860.587 250.983 830.292 220.457 796.421C209.116 783.84 199.093 769.212 196.389 752.495C190.156 713.874 225.317 701.832 257.274 701.41C275.286 701.164 292.842 705.656 310.202 710.111C339.025 717.516 370.925 717.338 398.138 730.346C407.274 734.729 414.723 740.754 424.77 743.209C440.4 747.035 457.25 746.8 473.13 749.925C486.694 752.619 502.466 758.461 505.396 771.971C508.384 785.829 495.828 797.776 484.313 806.03C476.168 811.899 467.987 817.412 459.682 822.518Z" fill="url(#paint0_linear)"/>
<path d="M214.65 359.825C256.832 255.419 376.76 191.307 487.737 203.232C541.252 208.99 590.531 234.374 636.841 261.769C677.661 285.913 717.998 312.75 749.962 348.208C771.786 372.411 790.28 403.074 804.962 432.257C826.928 475.957 828.887 537.94 768.115 546.462C753.856 548.463 740.624 546.032 726.544 544.445C715.153 543.153 705.209 547.543 693.806 548.17C665.107 549.755 636.169 545.298 608.309 538.778C551.526 525.467 497.302 502.444 439.705 492.469C392.51 484.317 344.19 485.269 297.352 495.274C277.592 499.498 257.121 505.356 237.549 500.331C189.305 487.926 196.229 424.953 205.372 388.398C207.784 378.666 210.885 369.117 214.65 359.825Z" fill="url(#paint1_linear)"/>
<path d="M702.231 269.151C714.393 276.175 759.794 292.72 754.201 263.029C752.798 255.635 747.924 249.212 742.222 244.803C735.695 239.74 729.108 237.766 723.499 231.436C716.662 223.809 709.25 216.852 701.361 210.656C685.174 197.71 667.099 186.421 647.568 183.864C633.87 182.076 612.576 187.856 610.047 205.462C606.357 231.094 644.938 227.332 658.282 233.508C670.941 239.348 680.143 252.086 691.183 261.407C694.67 264.345 698.369 266.937 702.231 269.151Z" fill="url(#paint2_linear)"/>
<path d="M507.843 280.828C532.131 288.873 552.392 304.384 575.339 315.447C613.543 333.862 659.509 329.409 700.844 339.034C742.993 348.86 777.931 370.715 799.713 408.373C827.841 456.976 842.831 518.755 840.068 575.549C837.018 638.067 808.405 685.324 759.841 723.192C711.304 761.037 653.92 786.182 594.607 801.6C588.884 803.092 583.146 804.469 577.364 805.753C447.492 834.527 264.545 826.051 190.174 695.9C189.493 694.711 188.829 693.519 188.161 692.308C180.245 677.728 174.104 662.253 169.868 646.213C154.708 589.38 151.101 523.821 159.635 465.641C165.368 426.475 187.927 389.542 213.951 361.082C250.516 321.099 301.509 301.919 353.148 286.94C391.386 275.85 434.839 265.445 474.754 272.385C485.979 274.369 497.04 277.191 507.843 280.828Z" fill="url(#paint3_linear)"/>
</g>
<path d="M465.771 502.875C467.913 506.409 472.514 507.539 476.049 505.397L490.603 496.577C498.013 492.087 506.362 489.35 515 488.679C517.575 488.479 520.143 487.605 522.44 485.994C528.528 481.726 530.545 473.449 527.104 466.857C523.065 459.119 513.414 456.505 506.067 460.958C504.076 462.164 502.468 463.76 501.28 465.589C496.511 472.928 490.33 479.244 482.845 483.78L468.293 492.598C464.758 494.739 463.629 499.341 465.771 502.875Z" fill="#FB4C47"/>
<path d="M404.234 596.975C400.916 596.16 397.566 598.19 396.751 601.509L393.399 615.174C391.692 622.131 388.411 628.612 383.754 634.054C382.365 635.676 381.375 637.688 380.974 639.973C379.91 646.027 383.57 652.045 389.434 653.887C396.32 656.05 403.49 651.936 405.182 645.037C405.641 643.169 405.648 641.296 405.274 639.532C403.771 632.454 403.693 625.148 405.417 618.12L408.769 604.458C409.582 601.139 407.552 597.789 404.234 596.975Z" fill="#C63F3B"/>
<path d="M434.476 473.727C437.948 474.579 441.454 472.454 442.306 468.982L445.814 454.682C447.6 447.403 451.033 440.621 455.907 434.926C457.359 433.228 458.396 431.123 458.816 428.732C459.929 422.396 456.099 416.099 449.962 414.172C442.757 411.909 435.254 416.214 433.483 423.432C433.003 425.388 432.996 427.348 433.387 429.193C434.959 436.6 435.042 444.245 433.238 451.599L429.73 465.897C428.879 469.369 431.003 472.875 434.476 473.727Z" fill="#C63F3B"/>
<path d="M447.98 575.414C444.445 577.556 443.316 582.157 445.458 585.692L454.278 600.247C458.768 607.656 461.505 616.005 462.176 624.643C462.376 627.218 463.25 629.786 464.86 632.083C469.129 638.171 477.406 640.188 483.997 636.747C491.735 632.708 494.349 623.058 489.897 615.71C488.691 613.719 487.095 612.111 485.266 610.923C477.927 606.154 471.611 599.973 467.075 592.488L458.257 577.936C456.116 574.402 451.514 573.273 447.98 575.414Z" fill="#FB4C47"/>
<path d="M485.264 610.924C477.925 606.155 471.609 599.974 467.073 592.489L458.254 577.937C456.113 574.402 451.511 573.273 447.977 575.415C444.442 577.557 443.313 582.158 445.455 585.693L454.273 600.245C458.809 607.731 465.125 613.911 472.464 618.68C474.293 619.868 475.889 621.477 477.095 623.467C479.963 628.201 479.895 633.889 477.417 638.418C479.658 638.377 481.911 637.837 483.995 636.749C491.733 632.71 494.347 623.059 489.894 615.711C488.688 613.721 487.092 612.112 485.264 610.924Z" fill="#C63F3B"/>
<path d="M356.828 532.759C368.374 525.763 372.062 510.731 365.065 499.185C358.069 487.639 343.037 483.951 331.491 490.948C319.945 497.944 316.257 512.976 323.254 524.522C330.25 536.068 345.282 539.756 356.828 532.759Z" fill="#FF8F8C"/>
<path d="M331.496 490.946C329.264 492.299 327.328 493.955 325.704 495.826C335.756 493.431 346.627 497.627 352.271 506.94C357.914 516.253 356.603 527.831 349.826 535.634C352.236 535.06 354.6 534.111 356.833 532.758C368.379 525.761 372.067 510.729 365.07 499.183C358.074 487.637 343.042 483.95 331.496 490.946Z" fill="#FB4C47"/>
<path d="M461.972 598.509C499.672 575.663 511.714 526.581 488.869 488.881C466.023 451.18 416.941 439.138 379.241 461.984C341.541 484.829 329.498 533.911 352.344 571.612C375.189 609.312 424.272 621.354 461.972 598.509Z" fill="#FB4C47"/>
<path d="M379.242 461.983C377.083 463.291 375.013 464.688 373.024 466.162C409.679 448.362 454.533 461.094 476.07 496.636C497.608 532.177 488.134 577.831 455.391 602.084C457.617 601.003 459.814 599.815 461.973 598.507C499.673 575.662 511.715 526.58 488.87 488.879C466.024 451.179 416.942 439.137 379.242 461.983Z" fill="#C63F3B"/>
<path d="M440.469 505.265C448.127 500.625 450.573 490.655 445.933 482.997C441.292 475.339 431.322 472.893 423.664 477.534C416.007 482.174 413.56 492.144 418.201 499.802C422.841 507.46 432.811 509.906 440.469 505.265Z" fill="#C63F3B"/>
<path d="M423.663 477.534C421.354 478.933 419.522 480.819 418.213 482.978C424.05 482.603 429.891 485.405 433.132 490.754C436.373 496.102 436.154 502.577 433.119 507.578C435.639 507.416 438.159 506.665 440.468 505.266C448.126 500.625 450.572 490.655 445.931 482.997C441.291 475.34 431.321 472.893 423.663 477.534Z" fill="white"/>
<path d="M418.054 581.085C423.238 577.944 424.894 571.195 421.753 566.011C418.611 560.827 411.862 559.171 406.679 562.312C401.495 565.454 399.839 572.203 402.98 577.387C406.121 582.571 412.87 584.226 418.054 581.085Z" fill="white"/>
<path d="M505.482 565.531C512.551 561.247 514.809 552.044 510.525 544.975C506.242 537.906 497.039 535.649 489.97 539.932C482.901 544.216 480.643 553.419 484.927 560.488C489.21 567.556 498.413 569.814 505.482 565.531Z" fill="#FB4C47"/>
<path d="M489.969 539.933C487.637 541.346 485.832 543.297 484.61 545.527C489.775 545.423 494.855 547.995 497.726 552.732C500.596 557.469 500.525 563.162 498.042 567.694C500.585 567.642 503.15 566.945 505.482 565.532C512.551 561.248 514.809 552.045 510.525 544.977C506.242 537.908 497.038 535.649 489.969 539.933Z" fill="#C63F3B"/>
<path d="M375.433 557.618C377.575 561.152 376.446 565.754 372.912 567.896L358.357 576.715C350.948 581.205 344.657 587.339 340.064 594.686C338.695 596.876 336.732 598.748 334.241 600.039C327.639 603.46 319.369 601.417 315.118 595.316C310.128 588.154 312.278 578.39 319.626 573.937C321.616 572.731 323.775 572.044 325.946 571.837C334.659 571.007 343.118 568.451 350.604 563.915L365.156 555.096C368.69 552.955 373.292 554.084 375.433 557.618Z" fill="#C63F3B"/>
<path d="M393.241 485.075C396.775 482.933 397.904 478.332 395.763 474.797L386.943 460.243C382.453 452.833 379.716 444.484 379.045 435.847C378.845 433.272 377.971 430.704 376.36 428.406C372.092 422.318 363.815 420.302 357.223 423.742C349.485 427.781 346.871 437.432 351.324 444.78C352.53 446.77 354.126 448.379 355.954 449.567C363.293 454.335 369.609 460.516 374.145 468.001L382.964 482.554C385.105 486.088 389.707 487.217 393.241 485.075Z" fill="#FB4C47"/>
<path d="M376.361 428.406C372.092 422.318 363.815 420.301 357.224 423.742C354.471 425.178 352.371 427.328 351.002 429.829C355.849 429.741 360.642 431.999 363.561 436.162C365.172 438.46 366.046 441.027 366.246 443.603C366.917 452.24 369.654 460.589 374.144 467.999L382.964 482.553C385.105 486.088 389.707 487.217 393.242 485.075C396.776 482.933 397.905 478.332 395.763 474.797L386.944 460.243C382.454 452.833 379.716 444.484 379.045 435.846C378.845 433.271 377.972 430.703 376.361 428.406Z" fill="#C63F3B"/>
<path d="M507.668 461.114C505.657 462.283 504.02 463.848 502.799 465.654C502.583 465.973 502.361 466.288 502.139 466.603C507.631 466.567 512.98 469.56 515.649 474.911C517.932 479.488 517.617 484.815 515.19 489.046C515.488 489.023 515.786 488.997 516.085 488.979C518.662 488.826 521.244 488.001 523.569 486.433C529.731 482.279 531.898 474.045 528.581 467.396C524.687 459.589 515.091 456.8 507.668 461.114Z" fill="#C63F3B"/>
<g opacity="0.63">
<path d="M591.751 625.138C593.205 626.658 595.616 626.711 597.136 625.257L603.396 619.268C606.582 616.22 610.429 613.938 614.648 612.652C615.905 612.268 617.085 611.551 618.049 610.497C620.603 607.704 620.692 603.369 618.255 600.473C615.394 597.073 610.31 596.839 607.15 599.862C606.294 600.681 605.671 601.652 605.282 602.691C603.722 606.864 601.348 610.685 598.129 613.765L591.87 619.752C590.35 621.206 590.297 623.618 591.751 625.138Z" fill="#FFC700"/>
<path d="M564.404 670.463C562.665 670.425 561.224 671.803 561.186 673.542L561.027 680.702C560.947 684.347 560.031 687.93 558.318 691.148C557.807 692.107 557.536 693.216 557.589 694.396C557.728 697.522 560.211 700.108 563.329 700.377C566.988 700.692 570.098 697.857 570.178 694.242C570.199 693.263 569.996 692.331 569.616 691.496C568.088 688.145 567.243 684.523 567.324 680.84L567.483 673.681C567.521 671.943 566.142 670.502 564.404 670.463Z" fill="#D09700"/>
<path d="M565.836 605.881C567.655 605.922 569.163 604.479 569.203 602.66L569.369 595.167C569.453 591.353 570.411 587.604 572.204 584.236C572.739 583.232 573.022 582.072 572.967 580.838C572.821 577.566 570.223 574.86 566.961 574.579C563.131 574.249 559.877 577.217 559.794 580.999C559.771 582.023 559.984 582.998 560.382 583.872C561.98 587.379 562.865 591.169 562.78 595.023L562.614 602.514C562.574 604.334 564.016 605.841 565.836 605.881Z" fill="#D09700"/>
<path d="M583.76 654.926C582.24 656.38 582.187 658.791 583.641 660.311L589.63 666.571C592.678 669.757 594.96 673.604 596.246 677.822C596.63 679.08 597.347 680.26 598.401 681.224C601.194 683.778 605.529 683.867 608.425 681.43C611.825 678.569 612.059 673.485 609.036 670.325C608.217 669.469 607.246 668.846 606.207 668.457C602.034 666.897 598.213 664.523 595.133 661.303L589.146 655.045C587.692 653.525 585.28 653.472 583.76 654.926Z" fill="#FFC700"/>
<path d="M606.206 668.456C602.033 666.896 598.213 664.521 595.133 661.302L589.145 655.043C587.691 653.523 585.28 653.47 583.759 654.924C582.239 656.379 582.186 658.79 583.64 660.31L589.628 666.568C592.708 669.787 596.528 672.162 600.702 673.722C601.741 674.111 602.712 674.734 603.531 675.59C605.478 677.626 606.072 680.46 605.34 682.984C606.45 682.716 607.509 682.199 608.425 681.429C611.824 678.568 612.059 673.484 609.035 670.324C608.216 669.468 607.246 668.844 606.206 668.456Z" fill="#D09700"/>
<path d="M533.764 643.784C538.729 639.033 538.903 631.157 534.153 626.192C529.402 621.226 521.526 621.052 516.56 625.802C511.595 630.553 511.421 638.429 516.171 643.395C520.922 648.36 528.798 648.534 533.764 643.784Z" fill="#D09700"/>
<path d="M516.561 625.802C515.601 626.72 514.822 627.757 514.221 628.866C518.952 626.566 524.817 627.452 528.649 631.457C532.481 635.462 533.106 641.361 530.6 645.986C531.734 645.434 532.804 644.702 533.764 643.783C538.73 639.033 538.904 631.156 534.153 626.191C529.403 621.226 521.526 621.051 516.561 625.802Z" fill="#FFC700"/>
<path d="M593.261 664.858C609.474 649.346 610.043 623.628 594.531 607.414C579.019 591.2 553.301 590.632 537.087 606.143C520.874 621.655 520.305 647.374 535.817 663.588C551.328 679.801 577.047 680.37 593.261 664.858Z" fill="#FFC700"/>
<path d="M537.093 606.142C536.165 607.03 535.29 607.953 534.465 608.904C550.715 596.015 574.409 597.393 589.033 612.679C603.657 627.964 603.986 651.695 590.391 667.36C591.378 666.577 592.339 665.745 593.267 664.856C609.481 649.344 610.049 623.626 594.538 607.412C579.026 591.198 553.307 590.63 537.093 606.142Z" fill="#D09700"/>
<path d="M568.173 624.318C569.372 623.171 569.414 621.269 568.267 620.07C567.12 618.871 565.218 618.829 564.019 619.976C562.82 621.123 562.778 623.025 563.925 624.224C565.072 625.423 566.974 625.465 568.173 624.318Z" fill="white"/>
<path d="M569.512 661.046C571.742 658.912 571.82 655.376 569.687 653.146C567.554 650.916 564.017 650.838 561.787 652.971C559.558 655.104 559.48 658.641 561.613 660.871C563.746 663.101 567.283 663.179 569.512 661.046Z" fill="white"/>
<path d="M548.632 640.443C552.046 637.177 552.166 631.762 548.9 628.348C545.634 624.935 540.219 624.815 536.806 628.081C533.392 631.347 533.272 636.761 536.538 640.175C539.804 643.589 545.219 643.708 548.632 640.443Z" fill="white"/>
<path d="M611.241 643.671C614.281 640.762 614.387 635.94 611.479 632.9C608.57 629.859 603.748 629.753 600.708 632.661C597.667 635.57 597.561 640.392 600.469 643.432C603.378 646.473 608.2 646.579 611.241 643.671Z" fill="#FFC700"/>
<path d="M600.709 632.661C599.706 633.621 599.024 634.789 598.663 636.033C601.218 635.411 604.027 636.129 605.976 638.166C607.925 640.204 608.518 643.04 607.784 645.566C609.042 645.26 610.239 644.631 611.242 643.671C614.283 640.762 614.389 635.94 611.481 632.9C608.572 629.86 603.749 629.753 600.709 632.661Z" fill="#D09700"/>
<path d="M545.751 654.085C547.205 655.605 547.152 658.016 545.632 659.47L539.372 665.459C536.185 668.507 533.736 672.25 532.264 676.407C531.826 677.646 531.057 678.793 529.961 679.71C527.058 682.138 522.723 682.035 519.938 679.472C516.668 676.464 516.659 671.375 519.819 668.351C520.675 667.532 521.672 666.953 522.728 666.61C526.966 665.236 530.888 663.033 534.107 659.953L540.365 653.966C541.885 652.511 544.296 652.565 545.751 654.085Z" fill="#D09700"/>
<path d="M546.593 616.075C548.113 614.621 548.166 612.209 546.712 610.689L540.723 604.43C537.674 601.243 535.393 597.396 534.107 593.178C533.723 591.92 533.006 590.741 531.952 589.777C529.159 587.223 524.823 587.134 521.927 589.57C518.528 592.431 518.294 597.516 521.317 600.676C522.136 601.532 523.106 602.155 524.146 602.543C528.319 604.103 532.14 606.478 535.22 609.697L541.207 615.956C542.661 617.476 545.073 617.529 546.593 616.075Z" fill="#FFC700"/>
<path d="M531.95 589.778C529.157 587.223 524.821 587.134 521.925 589.571C520.716 590.589 519.909 591.889 519.505 593.283C521.904 592.704 524.535 593.297 526.445 595.044C527.499 596.008 528.216 597.188 528.6 598.445C529.886 602.664 532.168 606.51 535.216 609.697L541.205 615.956C542.659 617.476 545.07 617.53 546.59 616.076C548.111 614.621 548.164 612.21 546.71 610.69L540.721 604.431C537.672 601.244 535.391 597.397 534.105 593.179C533.721 591.921 533.004 590.741 531.95 589.778Z" fill="#D09700"/>
</g>
<path d="M630.234 534.892C627.822 534.693 625.704 536.487 625.505 538.899L624.684 548.833C624.267 553.891 622.695 558.791 620.044 563.118C619.253 564.408 618.785 565.926 618.759 567.569C618.69 571.923 621.922 575.725 626.231 576.359C631.289 577.104 635.846 573.426 636.26 568.411C636.372 567.052 636.169 565.741 635.71 564.549C633.869 559.765 632.998 554.662 633.42 549.553L634.241 539.621C634.44 537.209 632.646 535.092 630.234 534.892Z" fill="#1DB776"/>
<path d="M606.766 473.363C608.293 472.069 608.482 469.783 607.188 468.256L601.86 461.968C599.148 458.768 597.202 454.984 596.222 450.905C595.93 449.688 595.317 448.527 594.371 447.551C591.866 444.966 587.754 444.633 584.864 446.781C581.471 449.302 580.958 454.117 583.647 457.291C584.376 458.15 585.262 458.798 586.227 459.227C590.1 460.947 593.592 463.422 596.331 466.655L601.658 472.941C602.953 474.468 605.239 474.657 606.766 473.363Z" fill="#128E5A"/>
<path d="M654.816 530.07C653.218 531.424 653.021 533.817 654.375 535.415L659.95 541.994C662.788 545.344 664.824 549.303 665.849 553.572C666.155 554.844 666.797 556.06 667.787 557.081C670.409 559.786 674.711 560.135 677.735 557.887C681.285 555.248 681.823 550.21 679.008 546.889C678.246 545.989 677.319 545.312 676.309 544.863C672.256 543.062 668.602 540.473 665.735 537.09L660.161 530.512C658.806 528.914 656.414 528.717 654.816 530.07Z" fill="#128E5A"/>
<path d="M601.949 501.517C602.149 499.105 600.355 496.988 597.942 496.789L588.008 495.968C582.951 495.55 578.051 493.978 573.724 491.327C572.434 490.537 570.916 490.068 569.273 490.042C564.918 489.974 561.117 493.206 560.483 497.514C559.738 502.572 563.416 507.129 568.431 507.544C569.79 507.656 571.101 507.452 572.293 506.993C577.077 505.152 582.179 504.282 587.288 504.704L597.221 505.524C599.633 505.724 601.75 503.93 601.949 501.517Z" fill="#1DB776"/>
<path d="M572.295 506.993C577.079 505.152 582.181 504.282 587.29 504.704L597.223 505.524C599.635 505.724 601.752 503.93 601.952 501.517C602.151 499.105 600.357 496.988 597.944 496.788L588.012 495.968C582.903 495.546 577.801 496.416 573.017 498.257C571.825 498.716 570.513 498.92 569.155 498.808C565.924 498.541 563.25 496.553 561.954 493.821C561.203 494.898 560.685 496.152 560.484 497.514C559.74 502.572 563.418 507.129 568.433 507.544C569.791 507.656 571.103 507.452 572.295 506.993Z" fill="#128E5A"/>
<path d="M653.512 472.956C652.861 480.836 658.721 487.753 666.602 488.404C674.482 489.055 681.399 483.194 682.05 475.314C682.701 467.433 676.84 460.517 668.96 459.866C661.079 459.215 654.163 465.075 653.512 472.956Z" fill="#128E5A"/>
<path d="M682.052 475.315C682.178 473.791 682.058 472.304 681.729 470.891C679.41 476.481 673.683 480.194 667.326 479.669C660.97 479.144 655.93 474.542 654.559 468.646C654.003 469.986 653.64 471.433 653.514 472.957C652.863 480.838 658.724 487.754 666.604 488.405C674.485 489.056 681.401 483.195 682.052 475.315Z" fill="#1DB776"/>
<path d="M586.187 500.217C584.061 525.948 603.197 548.531 628.929 550.657C654.661 552.783 677.243 533.647 679.369 507.915C681.495 482.183 662.359 459.6 636.627 457.475C610.896 455.349 588.313 474.485 586.187 500.217Z" fill="#1DB776"/>
<path d="M679.378 507.913C679.5 506.44 679.548 504.977 679.533 503.528C675.374 527.029 653.917 543.923 629.659 541.919C605.401 539.915 587.008 519.729 586.762 495.864C586.509 497.291 586.317 498.742 586.195 500.215C584.07 525.947 603.206 548.529 628.937 550.655C654.669 552.781 677.252 533.645 679.378 507.913Z" fill="#128E5A"/>
<path d="M637.794 522.073C637.362 527.299 641.249 531.886 646.476 532.318C651.702 532.75 656.289 528.863 656.721 523.636C657.153 518.41 653.266 513.822 648.039 513.39C642.813 512.959 638.225 516.846 637.794 522.073Z" fill="#128E5A"/>
<path d="M656.731 523.634C656.861 522.058 656.596 520.541 656.023 519.177C654.194 522.075 650.858 523.881 647.207 523.58C643.556 523.278 640.561 520.948 639.233 517.79C638.444 519.041 637.933 520.494 637.803 522.07C637.371 527.297 641.258 531.884 646.485 532.316C651.712 532.748 656.299 528.86 656.731 523.634Z" fill="white"/>
<path d="M609.548 485.377C609.255 488.916 611.887 492.021 615.425 492.313C618.964 492.606 622.069 489.974 622.361 486.436C622.654 482.897 620.022 479.792 616.484 479.5C612.946 479.207 609.84 481.839 609.548 485.377Z" fill="white"/>
<path d="M586.868 532.185C586.469 537.011 590.058 541.245 594.883 541.644C599.709 542.043 603.943 538.454 604.342 533.629C604.741 528.804 601.152 524.569 596.327 524.17C591.502 523.771 587.267 527.36 586.868 532.185Z" fill="#1DB776"/>
<path d="M604.346 533.627C604.478 532.035 604.173 530.508 603.535 529.161C601.809 531.647 598.842 533.172 595.609 532.905C592.375 532.638 589.7 530.647 588.404 527.911C587.554 529.135 587.003 530.591 586.871 532.183C586.473 537.009 590.061 541.244 594.887 541.642C599.712 542.041 603.947 538.453 604.346 533.627Z" fill="#128E5A"/>
<path d="M635.327 473.236C632.915 473.037 631.12 470.92 631.32 468.507L632.14 458.573C632.558 453.516 631.812 448.424 629.907 443.721C629.339 442.319 629.126 440.744 629.37 439.119C630.017 434.813 633.829 431.593 638.183 431.674C643.295 431.77 647.186 436.146 646.772 441.161C646.66 442.519 646.244 443.78 645.595 444.88C642.994 449.297 641.298 454.188 640.876 459.297L640.055 469.229C639.856 471.641 637.739 473.435 635.327 473.236Z" fill="#128E5A"/>
<path d="M663.61 506.613C663.411 509.025 665.205 511.142 667.618 511.342L677.552 512.162C682.609 512.58 687.509 514.152 691.836 516.803C693.126 517.594 694.644 518.062 696.287 518.088C700.641 518.156 704.443 514.925 705.077 510.616C705.822 505.558 702.144 501.001 697.129 500.587C695.77 500.474 694.459 500.678 693.267 501.137C688.483 502.978 683.38 503.849 678.272 503.427L668.339 502.606C665.927 502.406 663.81 504.201 663.61 506.613Z" fill="#1DB776"/>
<path d="M696.286 518.086C700.64 518.155 704.442 514.923 705.076 510.614C705.341 508.815 705.044 507.08 704.328 505.571C702.703 507.9 699.985 509.397 697.007 509.35C695.364 509.324 693.846 508.856 692.556 508.065C688.229 505.414 683.329 503.843 678.272 503.425L668.338 502.604C665.926 502.405 663.808 504.199 663.609 506.611C663.41 509.024 665.204 511.141 667.616 511.34L677.55 512.161C682.607 512.579 687.508 514.15 691.834 516.801C693.124 517.592 694.642 518.061 696.286 518.086Z" fill="#128E5A"/>
<path d="M636.259 568.417C636.371 567.059 636.168 565.748 635.709 564.557C635.628 564.346 635.551 564.134 635.474 563.922C633.651 566.572 630.421 568.14 626.955 567.63C623.991 567.193 621.537 565.257 620.317 562.674C620.228 562.824 620.141 562.976 620.049 563.126C619.26 564.415 618.791 565.933 618.765 567.575C618.697 571.928 621.927 575.728 626.234 576.362C631.29 577.106 635.845 573.43 636.259 568.417Z" fill="#128E5A"/>
<defs>
<linearGradient id="paint0_linear" x1="194.176" y1="758.489" x2="262.61" y2="885.978" gradientUnits="userSpaceOnUse">
<stop stop-color="#FFD8D8"/>
<stop offset="1" stop-color="#FFF8F8"/>
</linearGradient>
<linearGradient id="paint1_linear" x1="783.065" y1="322.511" x2="316.385" y2="151.694" gradientUnits="userSpaceOnUse">
<stop stop-color="#FFF8F8"/>
<stop offset="1" stop-color="#FFCFCF"/>
</linearGradient>
<linearGradient id="paint2_linear" x1="755.128" y1="262.288" x2="590.975" y2="230.473" gradientUnits="userSpaceOnUse">
<stop stop-color="#FFD7D7"/>
<stop offset="1" stop-color="#FFF9F9"/>
</linearGradient>
<linearGradient id="paint3_linear" x1="812.427" y1="692.993" x2="132.73" y2="473.257" gradientUnits="userSpaceOnUse">
<stop stop-color="#FFCFCF"/>
<stop offset="1" stop-color="#FFF8F8"/>
</linearGradient>
</defs>
</svg>
